<?xml version="1.0" encoding="utf-8"?>
<!--
  - Copyright © 2021-2023 Innospots (http://www.innospots.com)
  -  Licensed to the Apache Software Foundation (ASF) under one or more
  -  contributor license agreements.  See the NOTICE file distributed with
  -  this work for additional information regarding copyright ownership.
  -  The ASF licenses this file to You under the Apache License, Version 2.0
  -  (the "License"); you may not use this file except in compliance with
  -  the License. You may obtain a copy of the License at
  -
  -  http://www.apache.org/licenses/LICENSE-2.0
  -
  -  Unless required by applicable law or agreed to in writing, software
  -  distributed under the License is distributed on an "AS IS" BASIS,
  -  WITHOUT WARRANTIES OR CONDITIONS OF ANY KIND, either express or implied.
  -  See the License for the specific language governing permissions and
  -  limitations under the License.
  -->

<svg version="1.1" xmlns:xlink="http://www.w3.org/1999/xlink" width="18px" height="18px" xmlns="http://www.w3.org/2000/svg">
  <g transform="matrix(1 0 0 1 -695 -102 )">
    <path d="M 17.8469904119318 8.52259410511364  C 17.9768288352273 8.27889737215909  17.9508611505682 7.98526278409091  17.7870649857955 7.76553622159091  L 15.8275035511364 5.13880504261364  L 16.8801935369318 2.03466796875  C 16.9680841619318 1.77499112215909  16.9021661931818 1.48934659090909  16.7084073153409 1.29558771306818  C 16.5146484375 1.10182883522727  16.22900390625 1.03591086647727  15.9693270596591 1.12380149147727  L 12.8651899857955 2.17649147727273  L 10.2384588068182 0.216930042613636  C 10.0187322443182 0.0531338778409089  9.72509765625 0.0291637073863636  9.48140092329546 0.153009588068182  C 9.23770419034091 0.27685546875  9.08589311079546 0.528542258522727  9.087890625 0.802201704545454  L 9.12983842329546 4.078125  L 6.45516690340909 5.96977095170455  C 6.2314453125 6.12757457386364  6.11758700284091 6.39923650568182  6.15953480113636 6.66890092329545  C 6.20148259943182 6.93856534090909  6.39524147727273 7.16228693181818  6.65691583806818 7.2421875  L 9.00998757102273 7.97327769886364  L 0.262872869318182 16.7064098011364  C -0.0187766335227275 16.9860617897727  -0.0187766335227275 17.4414950284091  0.262872869318182 17.72314453125  C 0.402698863636363 17.8629705255682  0.588467684659091 17.9348810369318  0.772238991477273 17.9348810369318  C 0.956010298295454 17.9348810369318  1.13978160511364 17.8649680397727  1.27960759943182 17.7251420454545  L 10.0267223011364 8.99400745738636  L 10.7578125 11.3470791903409  C 10.8397105823864 11.6087535511364  11.0614346590909 11.8005149147727  11.3310990767045 11.8444602272727  C 11.3690518465909 11.8504527698864  11.4070046164773 11.8524502840909  11.4429598721591 11.8524502840909  C 11.6746715198864 11.8524502840909  11.8943980823864 11.7405894886364  12.0302290482955 11.548828125  L 13.921875 8.87415660511363  L 17.1977982954545 8.91610440340909  C 17.4714577414773 8.92009943181818  17.72314453125 8.76828835227273  17.8469904119318 8.52259410511364  Z M 15.7615855823864 7.45791903409091  L 13.5643199573864 7.42995383522727  C 13.32861328125 7.42795632102273  13.1048916903409 7.53981711647727  12.9670632102273 7.73357599431818  L 11.6986416903409 9.52734375  L 11.0454545454545 7.42795632102273  C 10.9755415482955 7.20223721590909  10.7977627840909 7.02445845170455  10.5720436789773 6.95454545454545  L 8.47465376420454 6.30335582386363  L 10.2684215198864 5.03493430397727  C 10.4621803977273 4.89910333806818  10.5760387073864 4.67538174715909  10.5720436789773 4.43767755681818  L 10.5440784801136 2.24041193181818  L 12.3058860085227 3.55477627840909  C 12.4956498579545 3.69659978693182  12.7433416193182 3.73455255681818  12.9670632102273 3.65864701704545  L 15.0484730113636 2.95352450284091  L 14.3433504971591 5.03493430397727  C 14.2674449573864 5.25865589488636  14.3073952414773 5.50634765625  14.4472212357955 5.69611150568182  L 15.7615855823864 7.45791903409091  Z " fill-rule="nonzero" fill="#374a66" stroke="none" fill-opacity="0.8" transform="matrix(1 0 0 1 695 102 )" />
  </g>
</svg>