<?xml version="1.0" encoding="utf-8"?>
<!--
  - Copyright © 2021-2023 Innospots (http://www.innospots.com)
  -  Licensed to the Apache Software Foundation (ASF) under one or more
  -  contributor license agreements.  See the NOTICE file distributed with
  -  this work for additional information regarding copyright ownership.
  -  The ASF licenses this file to You under the Apache License, Version 2.0
  -  (the "License"); you may not use this file except in compliance with
  -  the License. You may obtain a copy of the License at
  -
  -  http://www.apache.org/licenses/LICENSE-2.0
  -
  -  Unless required by applicable law or agreed to in writing, software
  -  distributed under the License is distributed on an "AS IS" BASIS,
  -  WITHOUT WARRANTIES OR CONDITIONS OF ANY KIND, either express or implied.
  -  See the License for the specific language governing permissions and
  -  limitations under the License.
  -->

<svg version="1.1" xmlns:xlink="http://www.w3.org/1999/xlink" width="36px" height="36px" xmlns="http://www.w3.org/2000/svg">
  <g transform="matrix(1 0 0 1 -631 -450 )">
    <path d="M 23.61285 4.6872  C 23.6069115429485 7.26942883974616  21.5150788397462 9.36126154294847  18.93285 9.3672  C 16.3481573707919 9.3672  14.25285 7.27189262920811  14.25285 4.6872  C 14.25285 2.10250737079189  16.3481573707919 0.00719999999999873  18.93285 0.00719999999999873  C 21.5175426292081 0.00719999999999873  23.61285 2.10250737079189  23.61285 4.6872  Z M 13.24305 8.8074  C 13.2395803840689 11.1684698190213  11.3264198190213 13.0816303840689  8.96535 13.0851  C 6.60284152564882 13.0851  4.68765 11.1699084743512  4.68765 8.8074  C 4.68765 6.44489152564881  6.60284152564882 4.5297  8.96535 4.5297  C 11.3278584743512 4.5297  13.24305 6.44489152564881  13.24305 8.8074  Z M 8.51085 18.99  C 8.50589492397101 21.0720147964914  6.81826857678481 22.7580315811148  4.73625 22.761  C 2.65159770002727 22.7610000000004  0.961651716738586 21.0710540167117  0.961651716738586 18.9864000000004  C 0.961651716738586 16.9017459832891  2.65159770002727 15.2118000000004  4.73625171673859 15.2118000000004  C 6.8209057334499 15.2118000000004  8.51085171673859 16.9017459832891  8.51085171673859 18.9864000000004  C 8.51085171673859 18.9876000002048  8.51085114449233 18.9888000003413  8.51085 18.99  Z M 12.16485 29.1411  C 12.1613836689145 30.9062002056706  10.7313502056706 32.3362336689145  8.96625 32.3397  C 7.19971199919122 32.3397  5.76765 30.9076380008088  5.76765 29.1411  C 5.76765 27.3745619991912  7.19971199919122 25.9425  8.96625 25.9425  C 10.7327880008088 25.9425  12.16485 27.3745619991912  12.16485 29.1411  Z M 18.93285 36  C 17.3919755479721 36  16.14285 34.7508744520279  16.14285 33.21  C 16.14285 31.6691255479721  17.3919755479721 30.42  18.93285 30.42  C 20.4737244520279 30.42  21.72285 31.6691255479721  21.72285 33.21  C 21.72285 34.7508744520279  20.4737244520279 36  18.93285 36  Z M 31.30335 29.0277  C 31.2998890917869 30.2723837073479  30.291733707348 31.2805390917869  29.04705 31.284  C 27.8009299189568 31.284  26.79075 30.2738200810432  26.79075 29.0277  C 26.79075 27.7815799189568  27.8009299189568 26.7714  29.04705 26.7714  C 30.2931700810432 26.7714  31.30335 27.7815799189568  31.30335 29.0277  Z M 33.18705 20.853  C 32.1654538739277 20.8525031146659  31.33755 20.0241964657818  31.33755 19.0026002188716  C 31.33755 17.9806525177847  32.1660022989131 17.1522002188716  33.18795 17.1522002188716  C 34.2098977010869 17.1522002188716  35.03835 17.9806525177847  35.03835 19.0026002188716  C 35.0383502190847 20.0249508638968  34.2103008638968 20.8530002190847  33.1888502190847 20.8530002190847  Z M 28.02915 9.9594  C 27.7585070109565 9.69132657671117  27.6064908251514 9.32603395111972  27.60705 8.9451  C 27.6070457719815 8.94367541782612  27.6070436579687 8.94225083016292  27.6070436579687 8.94082624171489  C 27.6070436579687 8.14553620195854  28.2517536182124 7.50082624171489  29.0470436579687 7.50082624171489  C 29.8423336977251 7.50082624171489  30.4870436579687 8.14553620195854  30.4870436579687 8.94082624171489  C 30.4870436579687 9.73611628147123  29.8423336977251 10.3808262417149  29.0470436579687 10.3808262417149  C 28.6652985535151 10.3808262417149  28.2991746845488 10.2292443894333  28.02915 9.9594  Z " fill-rule="nonzero" fill="#1245fa" stroke="none" transform="matrix(1 0 0 1 631 450 )" />
  </g>
</svg>