<svg xmlns="http://www.w3.org/2000/svg" xmlns:xlink="http://www.w3.org/1999/xlink" viewBox="0 0 65 64" fill="#fff" fill-rule="evenodd" stroke="#000" stroke-linecap="round" stroke-linejoin="round"><use xlink:href="#A" x=".5" y=".5"/><symbol id="A" overflow="visible"><g stroke="none"><path d="M36.62 8.716C36.06 7.18 16.753-.326 16.507.498c-3.545.924-4.988 5-7.426 7.598l-5.415-.3C1.28 10.854.028 13.988.88 17.246c3.058 4.142 6.607 7.667 8.82 12.87.175 2.453 10.615.257 12.853-.228-3.057 2.188-5.72 5.58-4.575 15.348 1.044 4.587 1.76 9.71 11.02 14.897 1.22.683 3.742 1.47 5.302 2.045 1.492.684 3.236.966 8.158-.54 2.848-1.227 5.923-1.967 8.7-3.192l-3.35.157c-4.613.1-8.175.444-9.272-.844L34.3 50.43l2.475-4.807c3.425.35 4.562 3.13 7.58 4.187l3.56-2.636c10.337 6.1 14.448-3.867 15.627-11.63-.126-3.16-6.84 1-6.432-.486.158-3.395-2.6-7.838-4.398-11.3l2.07-8.007c.94-.837-4.347-9.744-8.664-10.855-3.788-.975-9.497 3.82-9.497 3.82z" fill="#fdee21"/><g fill="#c8c037"><path d="M53.6 25.735l.116 2.56c-.014.498-.387.517-.696.62l2.01.737c.4.672.72 1.344 1.044 2.016.376 1.653.095 1.7-.155 1.822-.73.007-1.458.01-2.137-.136.304.16.37.278.404.483.06.38-.185.898-.587 1.397.595.33 1.68.653 2.485.96l.92-2.045c-.416-3.004-1.678-5.773-3.404-8.413zm3.754 10.077c1.115.465 2.657.33 4.793-.773.318-.226.614-.09.045.28-2.803 2.515-4.144 1.257-4.838.492z"/><path d="M62.362 34.7c.33.634.13 1.15.02 1.686-.346 2.726-1.196 4.88-2.862 7.133-5.42 8.716-10.895 3.262-15.26-.287l-1.805 4.523c-.096.396-.495.705 2.325 1.946l2.872-2.03c10.953 8.334 18.714-11.664 14.7-12.973zM45.58 42.5c-.74.053-2.938.8-3.036 1.234l1.012-1.508zm-1.437-9.243c.135 0 .785.175.716.136-.1-.056-.01.91.193 1.415l-.793 1.725c1.52-1.752 3.92-1.635 6.15-1.86l-1.064-.66c.185-.616-.033-1.104-.135-1.628zm3.732-5.195c-1.63.5-3.2 1.316-4.237 3.056.8-2.868.962-2.76 1.22-2.9 1.117-.5 2.033-.188 3.017-.155z"/></g><path d="M39.173 61.674c-1.97 2.174-6.367-.164-10.02-1.357-9.278-5.9-11.09-11.454-11.218-16.903-.477-7.805 1.92-12.34 4.95-13.414-2.006 3.867-2.94 10.8-2.01 15.972.75 2.872.767 7.716 5.572 10.31 2.353 1.325 1.716 2.356 3.307 3.597 1.744 1.36 6.606 2.652 9.417 1.795zm2.944-36.07c-3.336-4.732-8.03-6.507-13.32-6.7 1.06-.346 2.12-.526 3.18-1.037.26-.273.175-.753.077-1.24-5.093-1.33-8.308-2.974-12.377-4.497l10.985 2.636c7.418.282 6.78 2.113 11.453 10.84zm3.572-2.282c-2.465-3.52-4.857-7.79-8.102-10.508C29.75 9.278 22 6.65 12.917 4.26l2.9-3.728c9.64 2.2 18.694 5.882 26.803 11.953 1.372 3.47 2.287 6.943 3.07 10.837zm4.97-6.22s-1.382-3.1-2.055-4.285c-1.56-1.73-2.35-4.954-5.548-6.473 1.01.273 1.703-.052 3.768 1.82l3.252 6.168zm1.72 5.372c.32-2.687.924-6.996.23-8.7l-5.826-7.762c-.322-.3-.555-.708-.808-1.025 2.737.71 5.595 2.613 9.45 10.128z" fill="#fcf6a0"/><g fill="#000"><path d="M40.868 22.792c-1.1-.86-2.062-3.895-3.715-4.525-1.53-.128-2.1-.61-4.102-.2.73-.365 1.418-.833 2.194-1.083.525-.124 1.018.013 1.52.082.124-.06.205-.13.174-.24-2.024-1.25-6.178-1.27-8.98-1.983 3.254.11 6.854-.07 9.3.713 1.966 1.745 2.605 5.032 3.61 7.237zM46.83 8.154c.45.04 2.88 3.884 2.995 4.523l.834 4.427-1.38-4.208c-.16-.386-.562-1.26-1.682-2.495-.522-.87-.633-1.555-.766-2.248zm8.233 20.93h-1.04l1.15.302zm-7.092-1.037c-1.045-.128-2.118-.146-3.163.084-.426.572-.455 1.154-.642 1.692 1.27-1.4 1.775-1.486 3.804-1.776zm14.255 7.226c-.582.464-.64.9-2.36 1.425-1.254.297-1.962-.206-2.553-.882.895.256 1.038.932 3.438.174zm-5.212.29l-1.325 3.392c-1.083 1.27-.622.547-2.243 2.52.52-.8 1.194-1.57 1.547-2.404.247-.55.557-1.13.694-1.62-.43-.215-1.3-.232-1.43-.155-1.442.85-1.702 1.75-2.552 2.627.616-.985 1.142-2.06 1.857-2.947.08-.115.6-.137.935-.205l-1.516-.26c-.94.226-1.468 1.045-2.166 1.6.51-.735.978-1.5 1.625-2.132.064-.074 1.81.08 2.717.44l.018.36.514.207.387-.97zm-11.4 6.94c-.232-.08-2.282-.342-2.282-.28-.787.56-.907 1.096-.89 1.56 1.3-1.288 1.26-1.292 3.172-1.28zm-1.558-9.267s1.48-.216 1.45-.078c-.107.513.18 1.764.213 1.6l-.832.678c1.742-.876 3.575-.7 5.435-.834l-1.47-.446c.35-.05-.093-1.633-.213-1.667l.9-.252c-2.24-.586-3.533-.24-5.473 1.008z"/><path d="M56.85 34.342l-.33.165c-.047-.963-1.08-.892-1.953-.9l-.716-.175c.218.2.9.186.62.62-.228.122-.333.646-.464 1.086l-.387.02 2.07.814.444.068 1.064-.572z"/></g><path d="M47.044 33.692c-.166-.33-1.004-.283-1.185-.07-.147.173-.01 1.284.18 1.097.272-.24.627-.34 1.054-.32.054-.205.035-.427-.048-.708zm8.033 1.655c.08-.058.245-.615.19-.78-.1-.393-.89-.3-.89-.3-.19.112-.357.725-.287.927.033.17.86.226.985.165z"/><path d="M21.77 54.568l.492.048c2.917 1.432 7.72 3.556 14.673 2.415l1.09 1.717c-3.062 1.488-6.356 1.146-9.44 1.25zM17.58 43.246l1.46 6.134c3.912 2.445 10.594 5.246 16.165 5.02l-1.23-2.824c-11.627-2.47-12.61-5.59-16.395-8.33zm3.636-12.564c.713 4.754 1.668 8.357 5.802 11.376 2.534 1.822 5.048 3.636 8.107 5.134 0 0-.268 1.395-.492 1.37-9.103-1.012-15.767-8.56-16.575-12.007.782-2.645 1.904-4.296 3.16-5.874zm4.375-2.693c1.213 5.268 4.105 10.605 6.98 15.445 1.054 1.337 1.33 1.927 2.954 2.74 2.196.695 3.748.518 5.34.413-.437-.808-.825-1.653-1.326-2.412-3.568-2.822-1.92-5.39-.97-7.018-1.984-.5-4.613-1.567-4.975-2.968-.582-4.533-.287-5.97.296-8.298-2.686.567-5.41 1.128-8.298 2.098z" fill="#000"/></g><path d="M15.737.003c-.883.577-1.734 1.402-2.65 2.34-1.517 1.57-2.526 3.102-4.07 4.238-.31.266-1.176.695-2.265.76-.513.026-.848.11-1.79-.008-.832-.45-1.622-.157-2.393.764C1.72 9.312.65 11.622.204 13.075c-.917 3.708 1.422 6.763 3.667 9.117 1.997 1.95 3.148 3.17 3.968 4.958.62 1.16 1.08 2.752 1.578 3.868.18.354.142.352.626.46 1.043.223 2.49.224 3.78.335.557.008 1.323-.013 2.048-.09 1-.19 2.174-.374 3.158-.713.962-.237 1.82-.565 2.59-.867-.1.338-.835.663-1.11 1.092-2.618 3.75-3.336 7.084-2.88 12.346.258 2.333.793 4.266 1.6 6.478.37 1.013 1.156 2.616 1.9 3.68 2.242 3.167 7.255 7.234 14.236 8.8 1.218.167 2.6.078 3.9-.268 3.445-1.044 10.466-3.514 10.466-3.514s-6.233.516-9.087.233c-.66-.103-1.39-.138-1.85-.59-.077-.1-.358-.665-.177-.67.247-.007.957-.3 2.053-.4-2.34-.252-2.305-.25-2.476-.675a26.61 26.61 0 0 0-1.09-2.356c1.028.087 3.303.214 4.075-.583 0 0-1.346.155-2.536.016-.4-.047-1.085-.29-1.288-.366-.534-.208-.974-.273-1.076-.408-.186-.472-.31-.63-.535-1.263-.303-.837-.327-1.772-.386-2.627.778.96 1.77 1.767 3.083 2.18.017-.035 1.703.733 2.928.338l.255-.082c0 .022-.812.07-1.11-.076-2.49-1.06-2.866-1.986-3.268-2.446l-1.076-1.61c.327-.652.512-.677.946-.683 1.3.146 1.88.258 2.68.065.54 1.11.685 2.225 1.912 3.033 4.09 1.214 4.977-.36 5.967-1.75 2.942 2.16 7.73 2.825 11.057.037 4.228-4.893 5.567-12.606 5.192-13.046-.528-.896-1.22-1.82-1.816-1.692-2.12.58-2.902 1.655-5.003 1.41.25-.014.67-.02.674-.045.162-1.78-.013-2.64-.09-2.788-.638-1.406-1.475-2.886-2.06-3.995-.15-.23-.592-1.977-1.333-2.668-.318-.27-1.095-.986-1.095-.986l-.066.76s.304.046.42.517c.438 1.785 2.67 6.005 2.834 6.207.79 1.277.08 2.868.682 3.76.058.113 1.227-.01 2.133.046 1.5-.32 1.427-.977 2.715-1.076.867-.067.954 1.562.943 1.688-.162 1.798-.71 3.89-1.546 5.8-1.74 3.354-3.69 6.365-6.455 6.785-3.372.59-5.125-.885-6.953-1.824l-.7.596c-2.376 2.366-5.198 2.156-6.35-.935-.575-1.2-1.323-1.934-1.964-2.963l-3.4 2.448c-.283.58-.63 1.495-1.053 2.517-.294.7-.54 1.93-.524 2.945-.436.742 1.51 3.752 2.737 5.583l1.063 1.543c.244.632.777 1.2.8 1.258 2.28 2.975-2.877 2.3-3.943 2.11-2.102-.335-4.158-1.213-6.09-2.387l-.335-.207c-2.297-1.446-4.4-3.296-6.207-5.126-1.07-1.213-2.09-3.7-2.845-5.463-1.13-4.24-2.75-11.585 1.64-17.152.278-.318.58-.848.834-.954 1.304-.882 2.72-1.484 4.244-1.817l-.154-.987c-.76.173-3.322 1.1-4.046 1.502-1.647.477-3.013.976-5.112 1.5-.682.083-1.353.085-2.008-.004-1.5-.205-4.083-.022-4.248-.174-1.022-1.426-1.303-3.98-2.235-5.347l-.01-.014-.012-.013c-.544-.73-1.178-1.327-1.802-1.947-2.235-2.22-4.15-4.368-4.684-6.644-.135-.672-.482-1.37-.297-3.356l.003-.01.003-.01c.538-1.857 1.413-3.37 2.898-4.888 1.545.025 3.075.058 4.266.287.546.09 1.683.24 2.857.677 2.97 1.107 6.898 2.926 6.898 2.926-2.947-1.62-6.243-3.72-8.324-4.145-.3-.044-.5-.185-.592-.432 3.13-1.84 3.703-4.004 5.76-5.946.94-.41 1.308-.62 2.107-.705 7.394 1.17 12.047 4.114 15.73 6.083 1.494.813 2.853 1.427 4.15 2.167 1.137.374 4.57 2.965 5.574 4.362 1.02 2.154 1.765 4.48 2.445 6.726.487 2.284.915 3.2.915 3.2s-.414-1.9-.345-2.254c.43.16 1.444.477 1.865.428 0 0-1.88-.972-2.126-1.83-.8-2.755-1.583-7.044-1.797-7.267-.602-.757-3.114-2.68-4.654-3.57-.583-.336-.898-.545-.922-.693.492-.497 1.1-1.155 1.645-1.573.522-.4.997-.852 1.726-1.123 3.2-1.44 5.03.555 5.464.15 0 0-.69-.79-.383-.66.313.17 1.334.37 1.446.473 1.166.912 4.216 4.247 6.054 7.766.44.862.62 1.43.416 2.467a18.06 18.06 0 0 1-.588 2.304c-.202.464-1.347 3.64-1.342 4.065-.23 1.742.747 3.923.747 3.923.01-.592-.036-.908.017-1.33l.066-.756s-.042-.2-.034-.28c.05-.523.178-.963.216-1.263.368-2.275 1.006-3.913 1.73-5.9.215-.504.497-.784.483-1.168.012-.68-.597-1.594-1.038-2.487-.444-.903-.975-1.907-1.67-2.967-1.588-2.284-2.942-4.07-5.422-5.2-.694-.304-3.424-.602-4.366-.425-1.143.238-2.127.473-2.912.975-1.234.8-2.203 2.014-3.34 2.734-2.516-1.258-3.73-2.2-3.956-2.33-1.495-.8-3.3-1.73-5.222-2.613-.926-.864-6.675-2.93-11.94-3.34zm32.18 46.923c-1.55-1.212-2.856-2.46-3.716-3.744-.28 1.51-1.3 2.587-2.088 3.646-.157.248-.27.587.502 1.666.208.287.96.337 1.47.3-.517-.39-1.304-.805-1.43-1.163.9.62 1.753.798 2.514.698.175-.02.4-.204.557-.488.34-.73.605-.905.874-1.1l.62.775z" fill="#000" stroke-width=".008"/></symbol></svg>