<svg xmlns="http://www.w3.org/2000/svg" xmlns:xlink="http://www.w3.org/1999/xlink" viewBox="0 0 66.5 65.5" fill="#fff" fill-rule="evenodd" stroke="#000" stroke-linecap="round" stroke-linejoin="round"><use xlink:href="#A" x="1.25" y="1.25"/><symbol id="A" overflow="visible"><path d="M58.94 48.296c-3.48-.1-6.18.26-8.445 1.212-.65.262-1.7.262-1.782 1.082.35.345.4.908.695 1.385.525.865 1.438 2.032 2.263 2.637l2.785 2c1.7 1.038 3.613 1.642 5.265 2.682.958.605 1.915 1.385 2.875 2.035.487.345.782.9 1.392 1.125v-.13c-.305-.387-.392-.95-.695-1.385l-1.307-1.25c-1.263-1.687-2.83-3.157-4.525-4.367-1.392-.95-4.44-2.25-5.005-3.85l-.085-.1c.955-.1 2.087-.432 3-.692 1.48-.388 2.83-.3 4.35-.693l2.1-.605v-.388c-.783-.775-1.35-1.818-2.175-2.55-2.22-1.9-4.657-3.763-7.182-5.32-1.35-.865-3.1-1.425-4.525-2.163-.5-.26-1.393-.4-1.7-.825-.785-.95-1.22-2.205-1.785-3.332l-3.568-7.525c-.782-1.687-1.263-3.375-2.22-4.93-4.483-7.355-9.36-11.8-16.845-16.175-1.6-.907-3.5-1.3-5.56-1.75L13 4.21c-.7-.3-1.392-1.125-2-1.515C8.502 1.14 2.105-2.234.275 2.21c-1.175 2.8 1.74 5.58 2.733 7 .743.995 1.7 2.12 2.225 3.245.293.735.4 1.515.695 2.293l2.263 5.8 1.6 2.682c.35.485.957.693 1.088 1.47-.6.865-.65 2.162-1 3.245C8.32 32.844 8.93 38.9 11.15 42.5c.7 1.08 2.343 3.46 4.575 2.55 1.96-.775 1.525-3.245 2.088-5.407.133-.517.045-.865.305-1.212v.1l1.785 3.6c1.35 2.12 3.7 4.325 5.657 5.8 1.045.775 1.87 2.12 3.175 2.595v-.13h-.085c-.262-.388-.65-.562-1-.865-.782-.775-1.65-1.73-2.262-2.595-1.825-2.425-3.437-5.105-4.875-7.875-.7-1.34-1.308-2.812-1.87-4.15-.262-.52-.262-1.3-.7-1.558-.65.95-1.6 1.75-2.1 2.943-.825 1.86-.912 4.15-1.217 6.532-.175.043-.1 0-.175.1-1.4-.345-1.87-1.75-2.392-2.985-1.305-3.075-1.5-8-.393-11.55.305-.907 1.613-3.762 1.1-4.625-.262-.825-1.133-1.3-1.612-1.95-.605-.873-1.13-1.8-1.565-2.768-1.045-2.425-1.565-5.105-2.7-7.525-.5-1.125-1.437-2.293-2.175-3.33-.825-1.167-1.74-2-2.393-3.375-.217-.485-.525-1.255-.175-1.75.085-.345.262-.485.607-.562.565-.485 2.175.13 2.743.387 1.6.65 2.96 1.255 4.307 2.162.6.433 1.263 1.255 2.05 1.475h.915c1.393.3 2.96.1 4.262.485 2.308.737 4.395 1.818 6.27 2.985 5.7 3.6 10.4 8.695 13.58 14.795.525.995.74 1.9 1.22 2.942l2.96 6.36c.915 2.032 1.785 4.1 3.1 5.8.65.907 3.265 1.382 4.44 1.86.87.387 2.22.737 3.005 1.212l4.35 2.942c.695.518 2.875 1.6 3 2.463zM14.552 10.71a7.03 7.03 0 0 0-1.782.215v.1h.085c.35.693.957 1.168 1.393 1.75l1 2.075.085-.1c.6-.432.915-1.125.915-2.162-.262-.3-.305-.605-.525-.907-.262-.433-.825-.65-1.175-.995z" stroke="none" fill="#00678c"/></symbol></svg>